<?xml version="1.0" standalone="no"?>
<!DOCTYPE svg PUBLIC "-//W3C//DTD SVG 20010904//EN"
 "http://www.w3.org/TR/2001/REC-SVG-20010904/DTD/svg10.dtd">
<svg version="1.0" xmlns="http://www.w3.org/2000/svg"
 width="512.000000pt" height="512.000000pt" viewBox="0 0 512.000000 512.000000"
 preserveAspectRatio="xMidYMid meet">

	<g transform="translate(0.000000,512.000000) scale(0.100000,-0.100000)"
	fill="#000000" stroke="none">
		<path d="M2490 3976 c0 -79 3 -96 15 -96 12 0 15 14 16 63 l1 62 21 -62 c15
-46 26 -63 39 -63 16 0 18 10 18 95 0 78 -3 95 -15 95 -12 0 -15 -14 -16 -62
l0 -63 -22 60 c-14 38 -28 61 -39 63 -16 3 -18 -6 -18 -92z"/>
		<path d="M2516 3619 c-16 -101 -55 -341 -87 -534 l-58 -350 87 -88 87 -88
-614 1 c-337 1 -615 0 -616 -2 -2 -2 65 -14 148 -27 84 -13 323 -52 532 -86
l380 -63 88 86 88 87 -1 -614 c-1 -337 1 -615 3 -618 3 -2 8 20 11 49 4 29 42
269 85 533 l79 480 -87 88 -86 88 614 -1 c337 -1 615 0 617 2 2 2 -92 19 -209
37 -117 19 -356 57 -532 87 l-320 53 -87 -87 -88 -86 -2 619 -3 619 -29 -185z"/>
		<path d="M1500 3514 c0 -34 4 -53 10 -49 6 3 10 16 11 28 1 20 2 19 12 -5 19
-48 37 -34 37 27 0 57 -16 76 -22 28 l-4 -28 -12 28 c-19 44 -32 32 -32 -29z"/>
		<path d="M1580 3553 c0 -35 13 -93 20 -93 4 0 11 10 17 23 l10 22 7 -22 c10
-30 26 -29 26 1 0 13 3 38 6 55 4 20 3 31 -5 31 -6 0 -12 -15 -12 -32 -1 -18
-3 -25 -6 -15 -2 9 -11 17 -18 17 -7 0 -16 -8 -18 -17 -3 -10 -5 -3 -6 15 -1
32 -21 47 -21 15z"/>
		<path d="M3460 3515 c0 -58 19 -79 21 -22 l1 32 14 -32 c21 -49 34 -40 34 22
0 58 -19 78 -21 23 l-1 -33 -10 33 c-18 53 -38 41 -38 -23z"/>
		<path d="M3550 3515 l0 -55 38 1 c30 2 32 3 10 6 -36 5 -40 43 -5 44 l22 0
-22 9 c-32 13 -29 38 5 43 22 3 20 4 -10 6 l-38 1 0 -55z"/>
		<path d="M2115 3450 c-4 -17 -4 -34 -1 -37 3 -4 6 3 6 15 0 11 6 22 13 25 9 3
9 7 1 17 -9 9 -14 5 -19 -20z"/>
		<path d="M2152 3453 c-8 -18 -9 -30 -2 -37 7 -7 10 -2 11 15 l1 24 8 -25 c7
-23 8 -23 9 -3 1 12 7 23 14 26 10 4 10 7 0 18 -11 11 -13 10 -14 -6 0 -18 -1
-18 -7 -3 -6 14 -9 13 -20 -9z"/>
		<path d="M2224 3458 c3 -13 6 -29 6 -37 0 -11 3 -11 15 -1 12 10 15 10 15 -1
1 -18 15 6 24 41 5 18 5 21 -3 11 -13 -19 -41 -23 -41 -5 0 8 -5 14 -11 14 -7
0 -9 -9 -5 -22z"/>
		<path d="M2845 3450 c-4 -17 -5 -34 -2 -36 2 -3 7 10 11 27 8 42 0 50 -9 9z"/>
		<path d="M2883 3453 c-16 -33 -16 -43 -3 -43 6 0 10 10 11 23 1 21 1 21 9 -3
7 -23 8 -23 9 -3 1 12 7 23 14 26 10 4 10 7 0 18 -11 11 -13 10 -14 -6 0 -18
-1 -18 -7 -3 -6 14 -9 13 -19 -9z"/>
		<path d="M2942 3452 c-7 -14 -8 -30 -3 -35 4 -4 11 6 15 24 3 18 5 33 3 35 -1
1 -8 -9 -15 -24z"/>
		<path d="M2966 3458 c-10 -40 -7 -48 22 -47 23 2 24 2 5 6 -13 2 -23 9 -23 14
0 5 10 10 23 10 16 1 18 2 5 6 -25 6 -22 21 5 26 20 4 19 4 -4 6 -20 1 -28 -5
-33 -21z"/>
		<path d="M2200 3431 c0 -6 5 -13 10 -16 6 -3 10 1 10 9 0 9 -4 16 -10 16 -5 0
-10 -4 -10 -9z"/>
		<path d="M1581 2923 c-11 -20 -20 -21 -32 -1 -6 9 -9 3 -9 -17 0 -44 34 -42
48 2 11 36 8 43 -7 16z"/>
		<path d="M1610 2930 c0 -8 -3 -26 -6 -40 -5 -23 -5 -23 10 4 11 20 13 33 6 40
-7 7 -10 5 -10 -4z"/>
		<path d="M1651 2923 c0 -10 4 -27 8 -37 6 -15 10 -16 16 -7 6 10 9 10 15 1 5
-8 11 0 19 21 13 38 6 53 -8 18 -5 -13 -10 -17 -11 -9 0 13 -1 13 -10 0 -8
-12 -10 -11 -10 8 0 12 -4 22 -10 22 -5 0 -10 -8 -9 -17z"/>
		<path d="M3400 2928 c0 -7 -3 -23 -6 -35 -5 -19 -3 -23 17 -22 17 1 19 3 7 6
-26 6 -22 23 5 24 16 1 18 2 5 6 -25 6 -22 21 5 26 19 4 18 4 -5 6 -16 0 -28
-4 -28 -11z"/>
		<path d="M3460 2930 c0 -8 -3 -26 -6 -40 -5 -23 -5 -23 10 4 11 20 13 33 6 40
-7 7 -10 5 -10 -4z"/>
		<path d="M3500 2923 c0 -12 -6 -23 -12 -26 -10 -3 -10 -7 -2 -17 9 -9 14 -5
19 20 4 17 4 34 1 37 -3 4 -6 -3 -6 -14z"/>
		<path d="M3520 2928 c0 -7 -3 -23 -6 -35 -6 -20 -3 -23 22 -22 29 1 29 1 4 9
l-25 7 25 11 c18 8 20 11 8 11 -26 1 -22 19 5 24 19 4 18 4 -5 6 -16 0 -28 -4
-28 -11z"/>
		<path d="M1630 2885 c0 -8 5 -15 10 -15 6 0 10 7 10 15 0 8 -4 15 -10 15 -5 0
-10 -7 -10 -15z"/>
		<path d="M1084 2578 c4 -40 9 -81 12 -90 9 -31 33 -20 40 18 7 38 20 35 26 -6
1 -14 10 -26 19 -28 14 -2 18 8 23 50 4 29 9 70 12 91 5 29 2 37 -10 37 -11 0
-17 -15 -22 -52 -6 -42 -9 -48 -14 -28 -8 35 -40 40 -40 5 0 -15 -4 -24 -10
-20 -5 3 -10 26 -10 51 0 34 -4 44 -16 44 -14 0 -16 -9 -10 -72z"/>
		<path d="M3900 2560 l0 -90 55 0 c42 0 55 3 55 15 0 11 -11 15 -40 15 -36 0
-40 3 -40 25 0 22 4 25 35 25 24 0 35 5 35 15 0 10 -11 15 -35 15 -28 0 -35 4
-35 20 0 17 7 20 40 20 29 0 40 4 40 15 0 12 -13 15 -55 15 l-55 0 0 -90z"/>
		<path d="M1531 2205 c0 -22 3 -35 5 -28 3 7 11 10 18 7 9 -3 18 7 24 25 10 29
10 30 -9 18 -16 -10 -21 -9 -29 3 -7 11 -10 4 -9 -25z"/>
		<path d="M1604 2228 c-4 -6 1 -17 10 -24 18 -13 5 -31 -14 -19 -5 3 -10 1 -10
-5 0 -6 10 -10 22 -8 26 3 38 38 14 38 -22 0 -20 17 2 23 15 4 15 5 0 6 -9 0
-20 -4 -24 -11z"/>
		<path d="M1651 2205 c-1 -30 2 -36 9 -25 8 12 12 12 18 2 6 -8 12 0 20 25 10
35 10 36 -4 18 -18 -24 -26 -23 -35 2 -5 12 -8 5 -8 -22z"/>
		<path d="M3386 2218 c-10 -40 -7 -48 22 -47 23 2 24 2 5 6 -13 2 -23 9 -23 14
0 5 10 10 23 10 16 1 18 2 5 6 -25 6 -22 21 5 26 20 4 19 4 -4 6 -20 1 -28 -5
-33 -21z"/>
		<path d="M3454 2229 c-4 -7 1 -16 10 -21 23 -13 20 -31 -4 -25 -11 3 -18 1
-14 -4 9 -15 34 -10 41 7 4 10 -1 20 -13 27 -17 10 -17 11 1 18 16 6 17 8 3 8
-9 1 -20 -4 -24 -10z"/>
		<path d="M3510 2228 c0 -7 -3 -23 -6 -35 -6 -20 -3 -23 22 -22 24 1 25 2 7 6
-13 2 -23 9 -23 14 0 5 10 10 23 10 16 1 18 2 5 6 -25 6 -22 21 5 26 19 4 18
4 -5 6 -16 0 -28 -4 -28 -11z"/>
		<path d="M2114 1698 c-4 -6 0 -16 9 -23 24 -17 21 -28 -4 -22 -16 4 -19 3 -11
-5 6 -6 18 -8 26 -5 20 8 21 37 1 37 -21 0 -19 18 3 23 15 4 15 5 0 6 -9 0
-20 -4 -24 -11z"/>
		<path d="M2174 1698 c-4 -6 0 -16 9 -23 24 -17 21 -28 -4 -22 -16 4 -19 3 -11
-5 6 -6 18 -8 26 -5 20 8 21 37 1 37 -21 0 -19 18 3 23 15 4 15 5 0 6 -9 0
-20 -4 -24 -11z"/>
		<path d="M2221 1676 c-1 -33 1 -37 14 -26 12 10 15 10 15 -1 1 -18 15 6 24 41
6 19 5 21 -3 10 -13 -19 -34 -20 -43 0 -4 9 -7 -1 -7 -24z"/>
		<path d="M2834 1698 c-4 -6 1 -17 11 -24 17 -13 17 -14 -6 -23 -23 -9 -23 -10
-2 -10 29 -1 40 19 20 34 -22 16 -21 22 1 28 15 4 15 5 0 6 -9 0 -20 -4 -24
-11z"/>
		<path d="M2894 1698 c-4 -6 0 -16 9 -23 23 -17 21 -25 -5 -26 -19 -1 -20 -2
-4 -6 28 -7 45 15 24 31 -10 7 -18 16 -18 19 0 3 8 8 18 10 15 4 15 5 0 6 -9
0 -20 -4 -24 -11z"/>
		<path d="M2946 1688 c-10 -39 -7 -48 17 -47 16 1 18 2 5 6 -26 6 -22 23 5 24
16 1 18 2 5 6 -25 6 -22 21 5 26 20 4 19 4 -4 6 -20 1 -28 -5 -33 -21z"/>
		<path d="M1480 1651 c-7 -15 -6 -23 6 -35 8 -9 20 -16 25 -16 19 0 8 -29 -13
-33 -21 -4 -20 -4 3 -6 15 0 33 6 40 15 11 14 10 19 -9 34 -12 10 -28 20 -34
22 -19 7 3 30 23 25 11 -3 17 -1 13 4 -9 16 -43 10 -54 -10z"/>
		<path d="M1560 1646 c0 -37 12 -86 21 -86 4 0 11 10 15 22 l7 23 8 -23 c11
-29 29 -28 29 2 0 13 3 38 6 55 4 20 3 31 -5 31 -6 0 -11 -15 -11 -32 -1 -27
-2 -30 -11 -15 -5 9 -14 17 -19 17 -5 0 -11 -8 -13 -17 -3 -10 -5 -3 -6 15 -1
36 -21 45 -21 8z"/>
		<path d="M3472 1658 c-18 -18 -14 -34 13 -52 31 -20 32 -33 3 -39 -16 -4 -13
-5 7 -4 41 3 47 38 10 55 -30 14 -28 37 3 36 12 0 19 3 16 8 -8 12 -38 10 -52
-4z"/>
		<path d="M3550 1615 l0 -55 38 1 c30 2 32 3 10 6 -34 5 -37 30 -5 43 l22 9
-22 0 c-35 1 -31 39 5 44 22 3 20 4 -10 6 l-38 1 0 -55z"/>
		<path d="M2516 1244 c-28 -27 -16 -66 24 -85 47 -23 46 -44 -2 -43 -31 1 -38
-2 -38 -18 0 -17 6 -19 46 -16 54 3 70 21 60 62 -5 19 -18 32 -41 42 -19 8
-35 19 -35 24 0 18 31 24 52 11 17 -11 19 -10 16 11 -4 30 -57 38 -82 12z"/>
	</g>
</svg>
